HIERARCHY
ROOT Hips
{
	OFFSET 0.000000 0.000000 0.000000
	CHANNELS 6 Xposition Yposition Zposition Zrotation Yrotation Xrotation 
	JOINT LowerBack
	{
		OFFSET 0.000000 0.000000 0.000000
		CHANNELS 3 Zrotation Yrotation Xrotation
		JOINT Spine
		{
			OFFSET 0.028270 2.035590 -0.193380
			CHANNELS 3 Zrotation Yrotation Xrotation
			JOINT Spine1
			{
				OFFSET 0.056720 2.048850 -0.042750
				CHANNELS 3 Zrotation Yrotation Xrotation
				JOINT Neck
				{
					OFFSET 0.000000 0.000000 0.000000
					CHANNELS 3 Zrotation Yrotation Xrotation
					JOINT Neck1
					{
						OFFSET -0.054170 1.746240 0.172020
						CHANNELS 3 Zrotation Yrotation Xrotation
						JOINT Head
						{
							OFFSET 0.104070 1.761360 -0.123970
							CHANNELS 3 Zrotation Yrotation Xrotation
							End Site
							{
								OFFSET 0.000000 0.000000 0.000000
							}
						}
					}
				}
				JOINT LeftShoulder
				{
					OFFSET 0.000000 0.000000 0.000000
					CHANNELS 3 Zrotation Yrotation Xrotation
					JOINT LeftArm
					{
						OFFSET 3.362410 1.200890 -0.311210
						CHANNELS 3 Zrotation Yrotation Xrotation
						JOINT LeftForeArm
						{
							OFFSET 4.983000 -0.000000 -0.000000
							CHANNELS 3 Zrotation Yrotation Xrotation
							JOINT LeftHand
							{
								OFFSET 3.483560 -0.000000 -0.000000
								CHANNELS 3 Zrotation Yrotation Xrotation
								JOINT LeftFingerBase
								{
									OFFSET 0.000000 0.000000 0.000000
									CHANNELS 3 Zrotation Yrotation Xrotation
									JOINT LeftHandIndex1
									{
										OFFSET 0.715260 -0.000000 -0.000000
										CHANNELS 3 Zrotation Yrotation Xrotation
										End Site
										{
											OFFSET 0.000000 0.000000 0.000000
										}
									}
								}
								JOINT LThumb
								{
									OFFSET 0.000000 0.000000 0.000000
									CHANNELS 3 Zrotation Yrotation Xrotation
									End Site
									{
										OFFSET 0.000000 0.000000 0.000000
									}
								}
							}
						}
					}
				}
				JOINT RightShoulder
				{
					OFFSET 0.000000 0.000000 0.000000
					CHANNELS 3 Zrotation Yrotation Xrotation
					JOINT RightArm
					{
						OFFSET -3.136600 1.374050 -0.404650
						CHANNELS 3 Zrotation Yrotation Xrotation
						JOINT RightForeArm
						{
							OFFSET -5.241900 -0.000000 -0.000000
							CHANNELS 3 Zrotation Yrotation Xrotation
							JOINT RightHand
							{
								OFFSET -3.444170 -0.000000 -0.000000
								CHANNELS 3 Zrotation Yrotation Xrotation
								JOINT RightFingerBase
								{
									OFFSET 0.000000 0.000000 0.000000
									CHANNELS 3 Zrotation Yrotation Xrotation
									JOINT RightHandIndex1
									{
										OFFSET -0.622530 -0.000000 -0.000000
										CHANNELS 3 Zrotation Yrotation Xrotation
										End Site
										{
											OFFSET 0.000000 0.000000 0.000000
										}
									}
								}
								JOINT RThumb
								{
									OFFSET 0.000000 0.000000 0.000000
									CHANNELS 3 Zrotation Yrotation Xrotation
									End Site
									{
										OFFSET 0.000000 0.000000 0.000000
									}
								}
							}
						}
					}
				}
			}
		}
	}
}
}
MOTION
Frames: 15
Frame Time: 0.008333
12.678661 12.580053 2.343665 126.881718 -88.368464 -40.580795 1.695814 -2.472277 -3.473382 -0.300490 -2.689354 -3.194285 -3.804995 -2.916297 0.618685 9.905329 -13.035658 -15.855477 -1.021441 0.129064 -3.818705 0.000000 0.000000 0.000000 -3.489262 17.567845 5.643576 -67.734552 28.597272 -21.811044 0.645482 -8.231306 -0.009459 6.838191 -6.781913 -0.417172 -0.055225 0.133992 0.000000 0.000000 0.000000 0.000000 0.000000 0.000000 0.000000 14.036874 -11.100309 5.189121 60.612922 -29.868473 -39.594697 -0.437448 3.653318 -0.005142 -0.488883 20.068793 -0.086626 -0.007807 -0.301297 0.000000 0.000000 0.000000 0.000000 0.000000 0.000000 0.000000 
12.646490 12.562597 2.344382 128.083658 -88.320276 -41.643921 1.681331 -2.481849 -3.529934 -0.309611 -2.701997 -3.214992 -3.813882 -2.929915 0.605795 9.933531 -13.044354 -15.871526 -1.028455 0.128772 -3.826076 0.000000 0.000000 0.000000 -3.563071 17.565586 5.640658 -67.830462 28.472805 -21.558261 0.644239 -8.508344 -0.009665 6.787287 -6.712915 -0.409871 -0.053924 0.134874 0.000000 0.000000 0.000000 0.000000 0.000000 0.000000 0.000000 14.104462 -11.105618 5.193520 60.657718 -29.722719 -39.472820 -0.445656 3.780580 -0.005344 -0.549552 20.023168 -0.097327 -0.007509 -0.302020 0.000000 0.000000 0.000000 0.000000 0.000000 0.000000 0.000000 
12.614342 12.546229 2.345321 129.336828 -88.280702 -42.766491 1.671898 -2.491840 -3.571976 -0.317107 -2.714569 -3.230811 -3.822749 -2.943299 0.592014 9.958189 -13.044531 -15.884747 -1.035444 0.128447 -3.833092 0.000000 0.000000 0.000000 -3.639699 17.569245 5.637918 -67.944515 28.335588 -21.326392 0.642877 -8.776465 -0.009839 6.693092 -6.653293 -0.400671 -0.052012 0.135874 0.000000 0.000000 0.000000 0.000000 0.000000 0.000000 0.000000 14.166725 -11.101210 5.197848 60.718847 -29.560551 -39.389862 -0.454842 3.897243 -0.005555 -0.585991 19.987193 -0.103729 -0.007584 -0.302794 0.000000 0.000000 0.000000 0.000000 0.000000 0.000000 0.000000 
12.580856 12.528115 2.346022 130.367400 -88.241830 -43.633473 1.661776 -2.496668 -3.656074 -0.325244 -2.723875 -3.259394 -3.834291 -2.953941 0.584717 9.990364 -13.077180 -15.898695 -1.041164 0.128208 -3.838715 0.000000 0.000000 0.000000 -3.715164 17.572548 5.632970 -68.043835 28.210285 -21.081364 0.639949 -9.039949 -0.009983 6.625292 -6.548072 -0.390370 -0.050614 0.136276 0.000000 0.000000 0.000000 0.000000 0.000000 0.000000 0.000000 14.240287 -11.133715 5.199546 60.768655 -29.397752 -39.257303 -0.460297 4.034077 -0.005696 -0.629434 19.936967 -0.111229 -0.007350 -0.303620 0.000000 0.000000 0.000000 0.000000 0.000000 0.000000 0.000000 
12.547361 12.511183 2.346867 131.346071 -88.209683 -44.457466 1.658113 -2.502960 -3.725143 -0.331223 -2.734154 -3.282918 -3.845910 -2.965385 0.576431 10.019958 -13.105488 -15.910341 -1.046249 0.128016 -3.844171 0.000000 0.000000 0.000000 -3.796126 17.579947 5.628139 -68.156897 28.066357 -20.854869 0.637102 -9.293967 -0.010097 6.516293 -6.452315 -0.378369 -0.048615 0.136809 0.000000 0.000000 0.000000 0.000000 0.000000 0.000000 0.000000 14.307751 -11.161398 5.201079 60.834398 -29.209659 -39.158143 -0.466502 4.162524 -0.005843 -0.644991 19.901152 -0.113829 -0.007533 -0.304535 0.000000 0.000000 0.000000 0.000000 0.000000 0.000000 0.000000 
12.513403 12.494609 2.347573 132.128183 -88.180923 -45.083399 1.657210 -2.509166 -3.794288 -0.336456 -2.744472 -3.306093 -3.858503 -2.976883 0.569135 10.052779 -13.146627 -15.922094 -1.049984 0.127974 -3.849652 0.000000 0.000000 0.000000 -3.879626 17.586531 5.622880 -68.272310 27.909760 -20.633941 0.634618 -9.542354 -0.010195 6.401099 -6.344782 -0.365568 -0.046513 0.137218 0.000000 0.000000 0.000000 0.000000 0.000000 0.000000 0.000000 14.376929 -11.203109 5.202038 60.906557 -28.996515 -39.049856 -0.472151 4.292306 -0.005979 -0.648097 19.873051 -0.114130 -0.007861 -0.305534 0.000000 0.000000 0.000000 0.000000 0.000000 0.000000 0.000000 
12.478928 12.478432 2.348188 132.646613 -88.155605 -45.443918 1.661998 -2.516080 -3.865270 -0.339924 -2.755755 -3.329717 -3.872283 -2.989396 0.562352 10.087795 -13.198595 -15.934299 -1.052618 0.128060 -3.855227 0.000000 0.000000 0.000000 -3.969375 17.591050 5.617260 -68.387286 27.741025 -20.415007 0.632386 -9.788785 -0.010280 6.281298 -6.229320 -0.352267 -0.044320 0.137556 0.000000 0.000000 0.000000 0.000000 0.000000 0.000000 0.000000 14.446369 -11.256955 5.202480 60.986774 -28.759995 -38.929362 -0.476903 4.429312 -0.006099 -0.639629 19.850361 -0.112431 -0.008312 -0.306623 0.000000 0.000000 0.000000 0.000000 0.000000 0.000000 0.000000 
12.443869 12.462593 2.348617 132.860654 -88.132663 -45.498418 1.672379 -2.524144 -3.937401 -0.341680 -2.768432 -3.353740 -3.887261 -3.003347 0.555413 10.125225 -13.261135 -15.947651 -1.054346 0.128271 -3.861203 0.000000 0.000000 0.000000 -4.066554 17.591224 5.611455 -68.499915 27.559505 -20.195027 0.630875 -10.037599 -0.010367 6.165502 -6.106895 -0.339066 -0.042124 0.137857 0.000000 0.000000 0.000000 0.000000 0.000000 0.000000 0.000000 14.517046 -11.322451 5.202690 61.076193 -28.500494 -38.785000 -0.480778 4.577679 -0.006210 -0.624727 19.830192 -0.109631 -0.008829 -0.307791 0.000000 0.000000 0.000000 0.000000 0.000000 0.000000 0.000000 
12.408620 12.448131 2.348944 132.810888 -88.115424 -45.306303 1.690295 -2.534823 -3.988442 -0.341000 -2.783050 -3.371428 -3.902526 -3.019041 0.545092 10.161592 -13.322353 -15.961409 -1.055369 0.128603 -3.868125 0.000000 0.000000 0.000000 -4.171441 17.583081 5.606235 -68.620505 27.358041 -19.980768 0.630980 -10.294433 -0.010466 6.042144 -5.991781 -0.326064 -0.039686 0.138347 0.000000 0.000000 0.000000 0.000000 0.000000 0.000000 0.000000 14.583192 -11.385497 5.204254 61.185084 -28.208634 -38.641208 -0.485573 4.722711 -0.006342 -0.595695 19.822445 -0.104231 -0.009618 -0.309038 0.000000 0.000000 0.000000 0.000000 0.000000 0.000000 0.000000 
12.371742 12.432256 2.348658 132.286008 -88.095872 -44.611712 1.709210 -2.543563 -4.076191 -0.340439 -2.797513 -3.400691 -3.920873 -3.035048 0.538914 10.209515 -13.415998 -15.980548 -1.056162 0.129024 -3.875522 0.000000 0.000000 0.000000 -4.279654 17.571503 5.599624 -68.712081 27.151145 -19.740293 0.632098 -10.559835 -0.010605 5.989427 -5.843764 -0.315364 -0.038210 0.138448 0.000000 0.000000 0.000000 0.000000 0.000000 0.000000 0.000000 14.668164 -11.484456 5.203712 61.284982 -27.911533 -38.381313 -0.486091 4.910666 -0.006424 -0.597871 19.786216 -0.104431 -0.009807 -0.310267 0.000000 0.000000 0.000000 0.000000 0.000000 0.000000 0.000000 
12.334485 12.417607 2.348264 131.527983 -88.082553 -43.702586 1.736570 -2.554724 -4.144227 -0.337123 -2.813848 -3.424407 -3.939585 -3.052762 0.528697 10.254795 -13.500735 -15.999796 -1.057616 0.129413 -3.883695 0.000000 0.000000 0.000000 -4.396896 17.551076 5.593368 -68.808578 26.922973 -19.501974 0.634744 -10.842114 -0.010773 5.935667 -5.710345 -0.305464 -0.036575 0.138851 0.000000 0.000000 0.000000 0.000000 0.000000 0.000000 0.000000 14.749830 -11.572605 5.204582 61.406110 -27.591182 -38.113714 -0.487293 5.100600 -0.006531 -0.594597 19.750879 -0.103629 -0.010151 -0.311504 0.000000 0.000000 0.000000 0.000000 0.000000 0.000000 0.000000 
12.296266 12.403219 2.347564 130.501985 -88.073451 -42.530673 1.770274 -2.566404 -4.210972 -0.331879 -2.830967 -3.448304 -3.959577 -3.071311 0.516888 10.301451 -13.584513 -16.020197 -1.060465 0.129684 -3.892277 0.000000 0.000000 0.000000 -4.521624 17.524215 5.586508 -68.896584 26.676325 -19.256724 0.638642 -11.143317 -0.010980 5.906071 -5.581180 -0.297163 -0.035173 0.139404 0.000000 0.000000 0.000000 0.000000 0.000000 0.000000 0.000000 14.837158 -11.659128 5.205670 61.538302 -27.258360 -37.805081 -0.487688 5.304983 -0.006639 -0.602378 19.700494 -0.104730 -0.010347 -0.312688 0.000000 0.000000 0.000000 0.000000 0.000000 0.000000 0.000000 
12.257076 12.389194 2.346617 129.247175 -88.071637 -41.139845 1.810206 -2.577487 -4.273956 -0.324733 -2.847660 -3.471445 -3.980695 -3.089467 0.504006 10.350403 -13.667266 -16.042017 -1.064754 0.129835 -3.901342 0.000000 0.000000 0.000000 -4.650682 17.493948 5.578676 -68.975631 26.403588 -19.005718 0.643962 -11.463240 -0.011232 5.904390 -5.454884 -0.290564 -0.034053 0.140090 0.000000 0.000000 0.000000 0.000000 0.000000 0.000000 0.000000 14.931205 -11.743619 5.207175 61.676884 -26.906999 -37.467338 -0.487836 5.509389 -0.006760 -0.621720 19.638588 -0.107730 -0.010406 -0.313793 0.000000 0.000000 0.000000 0.000000 0.000000 0.000000 0.000000 
12.216764 12.375362 2.345438 127.808858 -88.077038 -39.575352 1.856725 -2.587875 -4.335345 -0.315533 -2.863953 -3.494572 -4.003042 -3.107280 0.490278 10.401191 -13.742799 -16.063985 -1.071476 0.129731 -3.910338 0.000000 0.000000 0.000000 -4.784912 17.462161 5.569350 -69.044505 26.102455 -18.754023 0.649964 -11.803817 -0.011525 5.920829 -5.339067 -0.285264 -0.033112 0.140998 0.000000 0.000000 0.000000 0.000000 0.000000 0.000000 0.000000 15.033247 -11.819850 5.208733 61.820838 -26.542186 -37.113930 -0.488001 5.714821 -0.006892 -0.655192 19.559903 -0.113229 -0.010297 -0.314777 0.000000 0.000000 0.000000 0.000000 0.000000 0.000000 0.000000 
12.175298 12.361824 2.344050 126.210931 -88.092081 -37.864124 1.909873 -2.596845 -4.393809 -0.304248 -2.879082 -3.517076 -4.026563 -3.123975 0.476325 10.455068 -13.810267 -16.086063 -1.080754 0.129353 -3.919226 0.000000 0.000000 0.000000 -4.922753 17.432437 5.558040 -69.102281 25.764748 -18.506707 0.656502 -12.163780 -0.011854 5.951435 -5.235121 -0.281364 -0.032301 0.142139 0.000000 0.000000 0.000000 0.000000 0.000000 0.000000 0.000000 15.144613 -11.886964 5.210426 61.964891 -26.157326 -36.767856 -0.489137 5.908365 -0.007051 -0.702818 19.469448 -0.121027 -0.010045 -0.315631 0.000000 0.000000 0.000000 0.000000 0.000000 0.000000 0.000000 
